<?xml version="1.0" standalone="no"?>
<!DOCTYPE svg PUBLIC "-//W3C//DTD SVG 20010904//EN"
 "http://www.w3.org/TR/2001/REC-SVG-20010904/DTD/svg10.dtd">
<svg version="1.0" xmlns="http://www.w3.org/2000/svg"
 width="300.000000pt" height="300.000000pt" viewBox="0 0 300.000000 300.000000"
 preserveAspectRatio="xMidYMid meet">
<metadata>
Created by potrace 1.10, written by Peter Selinger 2001-2011
</metadata>
<g transform="translate(0.000000,300.000000) scale(0.100000,-0.100000)"
fill="#000000" stroke="none">
<path d="M1463 2558 c-11 -13 -28 -38 -37 -55 -18 -36 -31 -40 -60 -18 -11 8
-30 15 -43 15 -43 0 -48 -59 -12 -132 10 -20 -5 -22 -127 -19 -66 2 -134 -19
-134 -41 0 -7 12 -31 28 -53 l27 -40 0 -426 0 -425 -27 -33 c-16 -18 -28 -38
-28 -46 0 -35 25 -37 307 -36 329 2 376 10 469 73 172 115 195 372 47 503 -30
26 -29 42 5 106 23 45 27 65 26 129 0 88 -20 135 -80 190 -40 37 -115 86 -124
82 -3 -1 -13 1 -22 4 -15 4 -15 8 -1 42 24 58 32 91 23 97 -5 3 -19 -22 -31
-55 l-22 -61 -149 3 -149 3 -24 60 c-14 33 -25 62 -25 63 0 2 19 -10 42 -27
65 -48 79 -43 123 40 l37 70 33 -70 c29 -60 38 -71 59 -71 14 0 40 13 58 30
36 32 23 41 -26 18 -22 -9 -29 -8 -46 7 -11 10 -20 24 -20 31 0 18 -44 64 -62
64 -8 0 -24 -10 -35 -22z m52 -250 c179 -3 180 -3 234 -33 67 -37 107 -85 127
-154 26 -88 0 -192 -61 -239 l-25 -20 23 -15 c83 -54 139 -154 139 -247 0
-158 -107 -284 -270 -319 -32 -7 -165 -11 -337 -11 l-285 0 40 40 40 40 0 446
0 447 -35 33 c-19 18 -35 34 -35 36 0 2 60 2 132 1 73 -2 214 -4 313 -5z"/>
<path d="M1257 2223 c-4 -3 -7 -128 -7 -277 l0 -270 130 130 130 129 -32 11
c-29 10 -31 13 -13 19 11 4 53 23 94 42 41 18 75 32 77 31 5 -6 -51 -188 -58
-188 -4 0 -11 12 -14 26 -6 25 -14 18 -160 -127 l-154 -154 0 -117 0 -118 203
0 c193 0 204 1 254 24 59 28 107 85 124 150 15 56 6 153 -19 202 -19 37 -92
114 -110 114 -4 0 -13 4 -21 9 -11 7 -6 16 22 40 98 87 84 257 -27 310 -38 19
-61 21 -227 21 -102 0 -189 -3 -192 -7z m368 -26 c55 -7 101 -64 109 -134 7
-49 -11 -94 -54 -142 -16 -18 -30 -42 -30 -52 0 -10 19 -31 43 -47 49 -35 87
-76 87 -96 0 -8 5 -16 10 -18 6 -2 11 -37 12 -78 2 -63 -1 -83 -22 -124 -30
-59 -68 -92 -123 -107 -42 -11 -350 -14 -368 -3 -12 7 -12 170 1 193 5 10 64
72 131 137 94 93 126 118 145 116 30 -3 51 29 74 116 19 71 17 87 -6 96 -19 7
-104 -13 -104 -25 0 -5 -8 -9 -18 -9 -29 0 -82 -54 -75 -79 4 -16 -11 -37 -65
-93 -39 -40 -74 -69 -79 -65 -9 10 -14 300 -6 369 l6 47 116 3 c111 3 173 2
216 -5z"/>
<path d="M1483 1662 c-31 -38 -35 -62 -17 -108 7 -17 12 -45 12 -62 -2 -48 16
-62 81 -62 71 0 82 8 85 56 1 21 8 52 14 67 24 57 7 103 -46 131 -48 25 -97
17 -129 -22z m145 -14 c26 -25 29 -64 6 -96 -11 -16 -14 -34 -9 -62 l7 -40
-67 0 -67 0 7 40 c5 28 2 46 -9 62 -20 29 -20 57 0 86 32 46 88 50 132 10z"/>
<path d="M1543 1623 c-14 -5 -18 -55 -6 -67 4 -4 6 -23 4 -42 -2 -29 1 -34 18
-34 17 0 21 6 21 30 0 17 7 41 16 55 27 41 -6 77 -53 58z"/>
<path d="M450 1062 l-35 -17 0 -118 c0 -88 4 -122 14 -130 25 -21 122 -15 169
11 35 19 43 21 48 8 9 -24 57 -36 85 -20 23 13 22 13 -23 14 -27 0 -48 5 -48
10 0 6 5 10 10 10 15 0 13 183 -2 198 -9 9 -2 12 35 12 47 0 47 0 34 -22 -19
-32 -11 -184 10 -192 13 -5 14 0 9 29 -5 24 -3 35 5 35 8 0 8 4 1 13 -6 7 -10
41 -9 77 2 60 0 65 -23 76 -14 7 -37 10 -52 7 -21 -4 -28 -13 -33 -41 -4 -21
-10 -30 -13 -22 -11 36 -46 60 -84 60 -24 0 -38 5 -38 13 0 9 -3 8 -9 -2 -5
-7 -10 -9 -12 -3 -3 6 -17 4 -39 -6z m128 -38 c25 -17 29 -56 7 -74 -13 -11
-12 -15 10 -36 14 -13 25 -27 25 -33 0 -23 -14 -43 -41 -56 -32 -17 -149 -20
-149 -5 0 6 5 10 10 10 15 0 13 183 -2 198 -19 19 112 16 140 -4z"/>
<path d="M490 980 c0 -35 3 -40 23 -40 29 0 47 18 47 46 0 22 -17 34 -51 34
-16 0 -19 -7 -19 -40z"/>
<path d="M490 875 c0 -39 3 -45 21 -45 33 0 59 19 59 43 0 31 -18 47 -52 47
-27 0 -28 -2 -28 -45z"/>
<path d="M1003 1060 c-21 -9 -23 -16 -23 -89 l0 -79 -34 -6 c-57 -11 -63 -4
-59 76 1 42 -2 77 -8 85 -14 16 -85 17 -95 1 -4 -7 -8 -63 -8 -125 -1 -135 1
-138 115 -130 90 7 79 7 164 1 39 -3 81 -1 95 4 16 6 33 6 47 -1 15 -7 33 -7
55 0 l33 11 -47 1 c-45 1 -61 12 -38 26 15 9 13 178 -2 193 -9 9 -1 12 38 12
38 -1 45 -3 32 -11 -15 -8 -18 -25 -18 -98 0 -92 13 -124 38 -99 9 9 17 7 34
-9 46 -43 145 -42 192 2 14 13 27 22 27 20 4 -13 7 -26 8 -34 2 -15 50 -22 71
-11 17 9 19 17 14 53 l-7 42 24 -20 c13 -11 36 -33 51 -49 21 -21 34 -27 52
-22 14 3 35 1 48 -4 16 -8 31 -8 48 -1 23 9 23 10 -12 10 -21 1 -38 3 -38 5 0
3 8 20 19 38 10 18 31 68 46 111 32 88 53 100 72 40 9 -30 52 -127 81 -185 2
-5 -17 -8 -42 -8 -42 0 -62 13 -34 22 7 3 9 14 5 29 -6 22 -10 24 -52 21 -39
-4 -45 -7 -45 -27 0 -28 19 -37 38 -18 17 16 32 8 32 -17 0 -24 53 -36 92 -21
14 5 29 7 32 4 10 -10 76 -11 82 -2 3 5 -13 9 -35 9 -39 0 -53 11 -31 25 15 9
13 178 -2 193 -9 9 -1 12 37 12 39 -1 46 -3 33 -11 -15 -8 -18 -25 -18 -97 0
-84 8 -112 34 -112 6 0 5 5 -2 12 -14 14 -17 164 -3 172 5 3 14 -1 20 -8 8
-10 9 -16 1 -21 -6 -4 -7 -12 -1 -23 5 -9 6 -25 2 -36 -13 -36 -1 -105 20
-117 26 -14 89 -1 89 18 0 13 3 13 25 -1 28 -18 81 -21 91 -5 5 8 9 7 14 -1 9
-15 168 -16 183 -1 5 5 7 24 4 42 l-4 34 -1 -37 -2 -38 -85 0 c-77 0 -102 8
-75 25 6 3 10 45 10 92 0 70 -3 88 -17 99 -15 11 -6 13 69 14 l87 0 4 -27 4
-28 2 28 c1 21 -5 30 -25 37 -37 14 -140 12 -152 -2 -6 -8 -7 -44 -3 -93 4
-44 5 -88 3 -97 -5 -21 -32 -24 -32 -4 0 7 -6 19 -14 25 -12 10 -12 16 0 39
27 53 17 105 -27 127 -31 17 -140 20 -154 6 -6 -6 -26 -5 -52 2 -30 8 -48 8
-66 0 -21 -10 -23 -17 -21 -60 2 -26 1 -65 -2 -85 -5 -32 -8 -36 -19 -24 -8 7
-17 26 -21 42 -13 51 -58 129 -77 132 -25 5 -67 -36 -67 -64 0 -12 -6 -29 -13
-36 -8 -7 -12 -18 -10 -24 2 -7 -3 -19 -12 -27 -8 -9 -15 -22 -16 -29 0 -7 -4
-3 -10 10 -5 13 -6 51 -3 84 5 48 3 59 -7 56 -10 -3 -15 -32 -17 -111 -1 -59
-6 -107 -10 -107 -4 0 -36 38 -71 85 -34 47 -66 87 -69 89 -4 2 -6 -30 -4 -72
3 -43 8 -78 13 -80 22 -9 6 -22 -26 -22 -19 0 -35 5 -35 10 0 6 5 10 10 10 15
0 13 183 -2 198 -9 9 -4 12 23 12 31 -1 40 -8 92 -77 l57 -76 0 58 c0 40 -5
64 -17 77 -15 17 -14 18 28 18 32 0 40 3 29 10 -25 16 -59 11 -72 -10 -7 -11
-17 -20 -21 -20 -5 0 -20 9 -34 20 -33 26 -87 26 -106 1 -13 -20 -13 -20 -43
-1 -39 27 -135 27 -172 2 -45 -31 -56 -36 -48 -23 13 20 -15 41 -54 41 -50 0
-61 -15 -53 -77 4 -36 0 -70 -13 -112 l-18 -61 -78 0 c-45 0 -78 4 -78 10 0 6
5 10 10 10 15 0 13 183 -2 198 -9 9 -1 12 36 12 41 0 47 -2 36 -14 -7 -9 -12
-49 -12 -103 l0 -88 33 2 c21 1 39 10 50 25 20 26 10 35 -19 19 -34 -18 -45 9
-40 90 5 69 5 70 -23 84 -15 8 -29 15 -31 14 -2 0 -13 -4 -25 -9z m-131 -32
c-8 -8 -12 -46 -12 -106 l0 -94 33 6 c17 3 40 16 49 29 18 22 18 22 18 -15 l0
-38 -85 0 c-50 0 -85 4 -85 10 0 6 5 10 10 10 15 0 13 183 -2 198 -9 9 -1 12
37 12 38 0 46 -3 37 -12z m625 -23 c33 -33 35 -38 31 -87 -4 -42 -11 -57 -37
-80 -85 -76 -211 10 -181 122 14 53 51 80 107 80 38 0 50 -5 80 -35z m817 23
c44 -19 47 -85 6 -104 -20 -9 -20 -10 11 -52 17 -23 35 -42 40 -42 5 0 9 -4 9
-10 0 -5 -10 -10 -23 -10 -24 0 -50 23 -80 73 -24 38 -37 34 -37 -13 0 -22 5
-40 10 -40 6 0 10 -4 10 -10 0 -5 -21 -10 -46 -10 -37 0 -44 3 -36 13 16 19
18 183 2 202 -11 13 -5 15 48 15 34 0 72 -5 86 -12z"/>
<path d="M1376 1004 c-21 -21 -30 -58 -23 -101 8 -46 33 -73 68 -73 39 0 59
33 59 95 0 63 -20 95 -60 95 -16 0 -36 -7 -44 -16z m78 -87 c-3 -31 -3 -30
-19 -52 -15 -19 -16 -19 -33 5 -26 37 -26 80 0 107 l22 24 16 -32 c9 -17 15
-41 14 -52z"/>
<path d="M2240 971 c0 -46 1 -48 26 -43 54 10 53 92 -1 92 -23 0 -25 -4 -25
-49z"/>
<path d="M2470 980 c0 -36 2 -40 25 -40 14 0 28 7 31 15 11 26 24 16 24 -18 0
-40 -20 -87 -37 -87 -8 0 -12 11 -11 25 2 19 7 24 20 19 13 -4 16 -1 12 10 -4
10 -18 16 -35 16 -28 0 -29 -2 -29 -46 l0 -47 37 6 c50 9 57 18 59 86 2 70
-18 101 -66 101 -28 0 -30 -2 -30 -40z"/>
<path d="M1882 953 c-16 -54 -16 -53 18 -53 34 0 35 1 11 54 l-17 39 -12 -40z"/>
<path d="M1371 701 c-42 -7 -68 -41 -77 -98 -6 -39 -4 -45 29 -78 30 -30 42
-35 82 -35 44 0 105 24 105 42 0 4 5 8 10 8 6 0 10 -9 10 -19 0 -23 19 -31 75
-31 78 0 98 65 44 139 -22 31 -36 41 -52 39 -34 -5 -26 -30 17 -54 49 -28 62
-49 48 -80 -21 -45 -122 -40 -122 6 0 26 12 25 28 -1 16 -26 56 -22 60 6 2 14
-8 26 -34 40 -66 36 -71 78 -12 99 34 12 79 0 72 -19 -4 -8 -1 -15 5 -15 6 0
11 6 11 14 0 42 -100 56 -131 17 -21 -26 -23 -26 -57 -2 -33 23 -66 30 -111
22z m106 -43 c17 -16 23 -33 23 -64 0 -35 -5 -47 -31 -68 -39 -33 -79 -33
-118 0 -54 45 -38 131 29 157 25 10 73 -2 97 -25z"/>
<path d="M1377 652 c-23 -26 -22 -94 1 -115 41 -38 82 -9 82 58 0 67 -46 98
-83 57z m54 -27 c1 -8 2 -21 3 -27 3 -17 -12 -48 -23 -48 -4 0 -14 11 -21 25
-10 18 -10 28 -2 38 7 8 9 17 5 20 -3 4 3 7 15 7 12 0 23 -7 23 -15z"/>
</g>
</svg>
